{"title":"Jungle Book (2016) 1080p Blu-ray x264 AAC 5.1 Hindi-English DDR","uid":15531305,"size":2906339385,"categoryP":"video","categoryS":"hd___movies","magnet":"?xt=urn:btih:02e03afae2aa2baf4239cda631c5d74c0f0a70d1&amp;dn=Jungle+Book+%282016%29+1080p+Blu-ray+x264+AAC+5.1+Hindi-English+DDR&amp;tr=udp%3A%2F%2Ftracker.leechers-paradise.org%3A6969&amp;tr=udp%3A%2F%2Fzer0day.ch%3A1337&amp;tr=udp%3A%2F%2Fopen.demonii.com%3A1337&amp;tr=udp%3A%2F%2Ftracker.coppersurfer.tk%3A6969&amp;tr=udp%3A%2F%2Fexodus.desync.com%3A6969","seeders":16,"leechers":7,"uploader":"SaM","files":3,"time":1470831622,"description":"1080p Blu-ray Rip x264\r\n\r\nAAC 5.1 Hindi &amp; .1 English\r\n\r\nArabic, English &amp; impaired Subtitles \r\n \nhttp://extraimago.com/image/wjP5 \nhttp://extraimago.com/image/wjPD \nhttp://extraimago.com/image/wjPF \nhttp://extraimago.com/image/wjPH \nhttp://extraimago.com/image/wjPk \nhttp://extraimago.com/image/wjPo \nhttp://extraimago.com/image/wjPt \nhttp://extraimago.com/image/wjPx \nhttp://extraimago.com/image/wjP6\r\n\r\nSpecs:\r\n\r\nHindi Center Channel reconstructed from English Lossless wave and Line hindi Audio.\r\nYou will have 3 parts with partial english audio.\r\n\r\n50 seconds in the middle\r\n10 mins of the final outro after the main movie ends.\r\n\r\nI have tried to sync as perfectly as possible.\r\n\r\nSource: BD50 @ DDR\r\n\r\nFormat : Matroska\r\nFile size : 2.66 GiB\r\nDuration : 1h 45mn\r\nOverall bit rate : 3 596 Kbps\r\n\r\nVideo\r\nFormat : AVC\r\nFormat/Info : Advanced Video Codec\r\nFormat profile :   \r\nFormat settings, CABAC : Yes\r\nFormat settings, ReFrames : 4 frames\r\nCodec ID : V_MPEG4/ISO/AVC\r\nDuration : 1h 45mn\r\nBit rate : 3 191 Kbps\r\nWidth : 1 920 pixels\r\nHeight : 1 040 pixels\r\nDisplay aspect ratio : 1.85:1\r\nFrame rate mode : Constant\r\nFrame rate : 23.976 (24000/1001) fps\r\ncolor space : YUV\r\nChroma subsampling : 4:2:0\r\nBit depth : 8 bits\r\nScan type : Progressive\r\nBits/(Pixel*Frame) : 0.067\r\nStream size : 2.36 GiB (89%)\r\ncolor primaries : BT.709\r\nTransfer characteristics : BT.709\r\nMatrix coefficients : BT.709\r\n\r\nAudio #1\r\nFormat : AAC\r\nFormat/Info : Advanced Audio Codec\r\nFormat profile : LC\r\nCodec ID : A_AAC\r\nDuration : 1h 45mn\r\nBit rate : 192 Kbps\r\nChannel(s) : 6 channels\r\nChannel positions : Front: L C R, Side: L R, LFE\r\nSampling rate : 48.0 KHz\r\nFrame rate : 46.875 fps (1024 spf)\r\nCompression mode : Lossy\r\nDelay relative to video : 9ms\r\nStream size : 145 MiB (5%)\r\nLanguage : Hindi\r\nDefault : Yes\r\nForced : No\r\n\r\n\r\nAudio #2\r\nFormat : AAC\r\nFormat/Info : Advanced Audio Codec\r\nFormat profile : LC\r\nCodec ID : A_AAC\r\nDuration : 1h 45mn\r\nBit rate : 192 Kbps\r\nChannel(s) : 6 channels\r\nChannel positions : Front: L C R, Side: L R, LFE\r\nSampling rate : 48.0 KHz\r\nFrame rate : 46.875 fps (1024 spf)\r\nCompression mode : Lossy\r\nDelay relative to video : 9ms\r\nStream size : 145 MiB (5%)\r\nLanguage : English\r\nDefault : Yes\r\nForced : No\r\n\r\n\r\n\r\nChapters : YES\r\n\r\nSAMPLE Included","torrent":{"xt":"urn:btih:02e03afae2aa2baf4239cda631c5d74c0f0a70d1","amp;dn":"Jungle+Book+%282016%29+1080p+Blu-ray+x264+AAC+5.1+Hindi-English+DDR","amp;tr":["udp%3A%2F%2Ftracker.leechers-paradise.org%3A6969","udp%3A%2F%2Fzer0day.ch%3A1337","udp%3A%2F%2Fopen.demonii.com%3A1337","udp%3A%2F%2Ftracker.coppersurfer.tk%3A6969","udp%3A%2F%2Fexodus.desync.com%3A6969"],"infoHash":"02e03afae2aa2baf4239cda631c5d74c0f0a70d1","infoHashBuffer":{"type":"Buffer","data":[2,224,58,250,226,170,43,175,66,57,205,166,49,197,215,76,15,10,112,209]},"announce":[],"urlList":[]}}